<?xml version="1.0" encoding="utf-8"?>
<!-- Generator: Adobe Illustrator 22.1.0, SVG Export Plug-In . SVG Version: 6.00 Build 0)  -->
<svg version="1.1" id="Layer_1" xmlns="http://www.w3.org/2000/svg" xmlns:xlink="http://www.w3.org/1999/xlink" x="0px" y="0px"
	 viewBox="0 0 400 69.2" style="enable-background:new 0 0 400 69.2;" xml:space="preserve">
<style type="text/css">
	.st0{fill:#B5963F;}
	.st1{fill:#E3E1DD;}
</style>
<g>
	<rect x="4.6" y="3.4" class="st0" width="169.9" height="64.5"/>
</g>
<g>
	<path class="st1" d="M17.7,62.7c-1.9,0-3.3-0.3-4.4-0.8v-4.3c1.4,0.4,2.9,0.6,4.4,0.6c2,0,3.4-0.6,4.5-1.8c1-1.2,1.5-2.9,1.5-5.1V8
		h5v42.9c0,3.8-0.9,6.7-2.8,8.7C24,61.7,21.3,62.7,17.7,62.7z"/>
	<path class="st1" d="M73,8v28c0,4.9-1.5,8.8-4.5,11.6c-3,2.8-7.1,4.2-12.3,4.2s-9.3-1.4-12.1-4.3c-2.9-2.8-4.3-6.8-4.3-11.7V8h5
		v28.3c0,3.6,1,6.4,3,8.3c2,1.9,4.9,2.9,8.7,2.9c3.7,0,6.5-1,8.4-2.9c2-1.9,3-4.7,3-8.4V8H73z"/>
	<path class="st1" d="M118.3,51.3h-5.8L88.9,15h-0.2c0.3,4.3,0.5,8.2,0.5,11.7v24.6h-4.7V8h5.7l23.6,36.2h0.2c0-0.5-0.1-2.2-0.3-5.1
		c-0.1-2.9-0.2-5-0.1-6.2V8h4.7V51.3z"/>
	<path class="st1" d="M167.8,29.6c0,6.9-1.8,12.4-5.3,16.4c-3.5,4-8.4,6-14.6,6c-6.4,0-11.3-2-14.8-5.9c-3.5-3.9-5.2-9.4-5.2-16.5
		c0-7.1,1.7-12.5,5.2-16.4c3.5-3.9,8.4-5.8,14.8-5.8c6.2,0,11.1,2,14.6,5.9C166.1,17.2,167.8,22.6,167.8,29.6z M133.3,29.6
		c0,5.9,1.2,10.3,3.7,13.4c2.5,3,6.1,4.6,10.9,4.6c4.8,0,8.4-1.5,10.9-4.5c2.5-3,3.7-7.5,3.7-13.4c0-5.8-1.2-10.3-3.7-13.3
		c-2.4-3-6.1-4.5-10.8-4.5c-4.8,0-8.5,1.5-11,4.6C134.5,19.4,133.3,23.8,133.3,29.6z"/>
</g>
<g>
	<path class="st1" d="M234.1,21.4c0,6.1-2.1,10.9-6.3,14.2c-4.2,3.3-10.2,5-18,5h-7.1v23.9h-7.1V3.7h15.7
		C226.5,3.7,234.1,9.6,234.1,21.4z M202.7,34.4h6.3c6.2,0,10.8-1,13.6-3c2.8-2,4.2-5.3,4.2-9.7c0-4-1.3-7-3.9-9
		c-2.6-2-6.7-2.9-12.3-2.9h-7.9V34.4z"/>
	<path class="st1" d="M284.9,64.3L277.3,45H253l-7.5,19.3h-7.1l24-60.9h5.9l23.9,60.9H284.9z M275.1,38.7l-7.1-18.8
		c-0.9-2.4-1.9-5.3-2.8-8.8c-0.6,2.7-1.5,5.6-2.6,8.8l-7.1,18.8H275.1z"/>
	<path class="st1" d="M326.5,9.1c-6.7,0-11.9,2.2-15.8,6.7c-3.9,4.4-5.8,10.5-5.8,18.2c0,7.9,1.9,14.1,5.6,18.4
		c3.7,4.3,9,6.5,15.9,6.5c4.2,0,9.1-0.8,14.5-2.3v6.2c-4.2,1.6-9.4,2.4-15.6,2.4c-8.9,0-15.8-2.7-20.7-8.1
		c-4.9-5.4-7.3-13.1-7.3-23.1c0-6.2,1.2-11.7,3.5-16.4c2.3-4.7,5.7-8.3,10.1-10.9c4.4-2.5,9.6-3.8,15.6-3.8c6.4,0,11.9,1.2,16.7,3.5
		l-3,6.1C335.7,10.2,331.1,9.1,326.5,9.1z"/>
	<path class="st1" d="M372.8,64.3h-7.1V9.9h-19.2V3.7H392v6.3h-19.2V64.3z"/>
</g>
</svg>
