<?xml version="1.0" encoding="utf-8"?>
<!-- Generator: Adobe Illustrator 22.1.0, SVG Export Plug-In . SVG Version: 6.00 Build 0)  -->
<svg version="1.1" id="Layer_1" xmlns="http://www.w3.org/2000/svg" xmlns:xlink="http://www.w3.org/1999/xlink" x="0px" y="0px"
	 viewBox="0 0 256 256" style="enable-background:new 0 0 256 256;" xml:space="preserve">
<style type="text/css">
	.st0{fill:#B5963F;}
	.st1{fill:#E3E1DD;}
</style>
<g>
	<rect x="4.4" y="38" class="st0" width="122.5" height="182.1"/>
</g>
<g>
	<path class="st1" d="M41.5,205.5c-5.2,0-9.4-0.8-12.4-2.3v-12.1c4,1.1,8.1,1.7,12.4,1.7c5.5,0,9.7-1.7,12.6-5
		c2.9-3.3,4.3-8.2,4.3-14.5V51h14.2v121.1c0,10.6-2.7,18.8-8,24.6C59.2,202.6,51.5,205.5,41.5,205.5z"/>
</g>
<g>
	<path class="st1" d="M251.3,88.7c0,17.3-5.9,30.7-17.7,40c-11.8,9.3-28.7,14-50.7,14h-20.1V210h-19.9V38.8h44.4
		C229.9,38.8,251.3,55.5,251.3,88.7z M162.7,125.6h17.9c17.6,0,30.4-2.8,38.3-8.5c7.9-5.7,11.8-14.8,11.8-27.4
		c0-11.3-3.7-19.7-11.1-25.3c-7.4-5.5-19-8.3-34.6-8.3h-22.2V125.6z"/>
</g>
</svg>
